<?xml version="1.0" encoding="UTF-8"?>
<svg width="41px" height="22px" viewBox="0 0 41 22" version="1.1" xmlns="http://www.w3.org/2000/svg" xmlns:xlink="http://www.w3.org/1999/xlink">
    <!-- Generator: Sketch 59 (86127) - https://sketch.com -->
    <title>Group</title>
    <desc>Created with Sketch.</desc>
    <g id="Propostas" stroke="none" stroke-width="1" fill="none" fill-rule="evenodd">
        <g id="2.0-Propostas-/-Em-negociação-Copy" transform="translate(-167.000000, -36.000000)">
            <g id="Group" transform="translate(187.500000, 47.000000) rotate(90.000000) translate(-187.500000, -47.000000) translate(177.000000, 27.000000)">
                <path d="M18.1553963,0.087721519 C19.6624024,0.087721519 20.8834756,1.28443038 20.8834756,2.7621519 C20.8834756,4.23759494 19.6624024,5.43278481 18.1553963,5.43278481 C16.6467256,5.43278481 15.4273171,4.23759494 15.4273171,2.7621519 C15.4273171,1.28443038 16.6467256,0.087721519 18.1553963,0.087721519" id="Fill-13" fill="#DD7133"></path>
                <polygon id="Fill-14" fill="#3777BC" points="0.0236890244 5.15417722 13.789061 5.15417722 13.789061 0.367088608 0.0236890244 0.367088608"></polygon>
                <path d="M18.254122,27.5253165 C19.5691829,28.0067089 20.5122622,29.244557 20.5122622,30.6951899 C20.5122622,32.191519 19.4918415,33.4764557 18.1158293,33.8805063 L0.0236890244,39.9525316 L0.0236890244,34.89 C2.54330488,34.1251899 12.9660915,30.97 13.9565488,30.7888608 L13.9565488,30.5813924 C12.943939,30.4158228 2.53933537,27.2489873 0.0236890244,26.4802532 L0.0236890244,21.4162025" id="Fill-15" fill="#3777BC"></path>
                <path d="M0.0236890244,13.8239241 L15.8284939,13.8239241 L15.8284939,7.21481013 L20.5122622,7.21481013 L20.5122622,16.6632911 C20.5122622,17.9389873 19.4554756,18.9763291 18.1553963,18.9763291 L0.0236890244,18.9763291" id="Fill-16" fill="#3777BC"></path>
            </g>
        </g>
    </g>
</svg>